<?xml version="1.0" encoding="utf-8"?>
<svg version="1.1" id="info_icon" x="0px" y="0px" viewBox="0 0 150 150" xmlns="http://www.w3.org/2000/svg" xmlns:bx="https://boxy-svg.com">
  <g transform="matrix(1, 0, 0, 1, 18.301815, 16.870167)">
    <path d="M 78.61 99.479 L 77.051 105.852 C 72.374 107.698 68.638 109.103 65.856 110.069 C 63.071 111.038 59.835 111.52 56.148 111.52 C 50.486 111.52 46.082 110.133 42.941 107.378 C 39.8 104.612 38.229 101.107 38.229 96.855 C 38.229 95.209 38.343 93.516 38.58 91.791 C 38.819 90.064 39.199 88.119 39.719 85.945 L 45.564 65.257 C 46.084 63.276 46.526 61.399 46.88 59.624 C 47.239 57.86 47.412 56.237 47.412 54.776 C 47.412 52.134 46.865 50.286 45.776 49.247 C 44.687 48.211 42.609 47.685 39.524 47.685 C 38.013 47.685 36.46 47.927 34.877 48.395 C 33.287 48.865 31.928 49.319 30.787 49.741 L 32.35 43.363 C 36.179 41.804 39.839 40.469 43.34 39.361 C 46.841 38.25 50.149 37.694 53.278 37.694 C 58.901 37.694 63.24 39.053 66.287 41.771 C 69.334 44.491 70.857 48.017 70.857 52.362 C 70.857 53.261 70.757 54.845 70.542 57.109 C 70.332 59.378 69.941 61.457 69.371 63.348 L 63.551 83.953 C 63.074 85.608 62.645 87.5 62.272 89.629 C 61.887 91.744 61.703 93.36 61.703 94.444 C 61.703 97.18 62.313 99.048 63.536 100.041 C 64.768 101.034 66.89 101.528 69.904 101.528 C 71.319 101.528 72.929 101.277 74.718 100.784 C 76.502 100.291 77.803 99.858 78.61 99.479 Z M 74.761 17.61 C 74.761 21.2 73.408 24.266 70.689 26.787 C 67.977 29.317 64.709 30.583 60.886 30.583 C 57.051 30.583 53.775 29.317 51.032 26.787 C 48.294 24.265 46.922 21.2 46.922 17.61 C 46.922 14.027 48.294 10.956 51.032 8.403 C 53.77 5.854 57.052 4.58 60.886 4.58 C 64.708 4.58 67.977 5.857 70.689 8.403 C 73.41 10.956 74.761 14.028 74.761 17.61 Z"/>
  </g>
  <ellipse style="stroke: rgb(0, 0, 0); fill: none; stroke-width: 9px;" cx="75" cy="75" rx="70" ry="70" bx:origin="0.44954 0.440367"/>
</svg>